<mxfile host="app.diagrams.net" modified="2023-11-29T18:31:05.915Z" agent="Mozilla/5.0 (Windows NT 10.0; Win64; x64) AppleWebKit/537.36 (KHTML, like Gecko) Chrome/119.0.0.0 Safari/537.36" etag="KKTQGub0pfWVjoIz9Ogc" version="22.1.5" type="device">
  <diagram name="PÃ¡gina-1" id="D0XJ2t2ZkF3n9Uv4g6JF">
    <mxGraphModel dx="1434" dy="738" grid="1" gridSize="10" guides="1" tooltips="1" connect="1" arrows="1" fold="1" page="1" pageScale="1" pageWidth="827" pageHeight="1169" math="0" shadow="0">
      <root>
        <mxCell id="0" />
        <mxCell id="1" parent="0" />
        <mxCell id="NEwymT5-FS5a0KC5mGUI-1" value="" style="rounded=0;whiteSpace=wrap;html=1;" vertex="1" parent="1">
          <mxGeometry x="277" y="90" width="120" height="60" as="geometry" />
        </mxCell>
        <mxCell id="NEwymT5-FS5a0KC5mGUI-6" value="" style="edgeStyle=orthogonalEdgeStyle;rounded=0;orthogonalLoop=1;jettySize=auto;html=1;" edge="1" parent="1" source="NEwymT5-FS5a0KC5mGUI-3" target="NEwymT5-FS5a0KC5mGUI-5">
          <mxGeometry relative="1" as="geometry" />
        </mxCell>
        <mxCell id="NEwymT5-FS5a0KC5mGUI-3" value="" style="whiteSpace=wrap;html=1;" vertex="1" parent="1">
          <mxGeometry x="285" y="245" width="120" height="60" as="geometry" />
        </mxCell>
        <mxCell id="NEwymT5-FS5a0KC5mGUI-5" value="" style="whiteSpace=wrap;html=1;" vertex="1" parent="1">
          <mxGeometry x="485" y="245" width="120" height="60" as="geometry" />
        </mxCell>
        <mxCell id="NEwymT5-FS5a0KC5mGUI-8" style="edgeStyle=orthogonalEdgeStyle;rounded=0;orthogonalLoop=1;jettySize=auto;html=1;exitX=0.5;exitY=1;exitDx=0;exitDy=0;entryX=0.433;entryY=0.05;entryDx=0;entryDy=0;entryPerimeter=0;" edge="1" parent="1" source="NEwymT5-FS5a0KC5mGUI-1" target="NEwymT5-FS5a0KC5mGUI-3">
          <mxGeometry relative="1" as="geometry" />
        </mxCell>
      </root>
    </mxGraphModel>
  </diagram>
</mxfile>
